<svg version="1.0" xmlns="http://www.w3.org/2000/svg" class="{{ class }}" width="{{ width }}" height="{{ height }}" viewBox="0 0 1024 1024" preserveAspectRatio="xMidYMid meet">
  <g transform="translate(0,1024) scale(0.1,-0.1)" fill="currentColor" stroke="none">
    <path d="M4965 9213 c-167 -6 -520 -54 -695 -94 -152 -35 -175 -41 -200 -49 -14 -4 -59 -18 -100 -30 -603 -176 -1212 -517 -1655 -926 -695 -641 -1109 -1377 -1279 -2269 -50 -264 -66 -452 -66 -772 0 -274 16 -486 50 -663 5 -25 14 -74 20 -110 27 -149 104 -436 162 -605 62 -180 228 -528 338 -710 127 -209 284 -418 455 -605 89 -98 289 -295 335 -330 25 -19 77 -62 116 -95 152 -129 352 -268 579 -401 158 -93 410 -216 593 -290 146 -59 449 -154 571 -180 41 -8 77 -17 80 -19 10 -5 168 -26 231 -30 30 -2 138 -11 240 -20 152 -14 243 -16 510 -11 179 4 352 11 385 16 33 5 94 13 135 19 182 24 459 81 585 121 16 5 68 21 115 36 292 90 690 282 950 459 41 28 87 57 102 64 15 8 36 21 45 30 10 9 52 43 94 76 42 33 92 72 110 87 169 133 339 296 469 449 89 105 258 325 310 404 11 17 36 54 56 84 20 29 41 67 46 85 6 17 23 49 38 71 15 22 38 72 52 110 14 39 49 122 78 185 28 63 57 131 65 151 7 19 24 58 37 85 37 73 169 487 204 639 9 39 27 108 40 155 32 119 70 366 85 557 13 177 8 560 -11 748 -41 409 -193 926 -373 1275 -101 196 -234 418 -273 457 -8 8 -14 19 -14 25 0 6 -12 25 -27 43 -35 41 -54 66 -104 135 -23 30 -55 71 -73 90 -18 19 -44 51 -59 70 -14 19 -60 71 -101 115 -42 44 -76 83 -76 86 0 7 -289 274 -340 314 -324 254 -514 376 -842 540 -506 252 -1044 397 -1583 425 -162 9 -230 10 -410 3z m391 -853 c334 -27 557 -73 849 -175 667 -232 1265 -687 1657 -1260 228 -334 371 -650 472 -1045 67 -264 96 -498 96 -780 -1 -584 -125 -1083 -395 -1582 -154 -286 -329 -523 -555 -748 -449 -449 -1044 -774 -1637 -894 -513 -104 -959 -100 -1472 16 -371 83 -775 261 -1113 491 -399 271 -748 647 -990 1067 -181 316 -312 680 -378 1053 -52 298 -67 699 -35 969 14 121 66 401 85 463 5 17 24 77 41 135 128 428 403 895 724 1230 366 383 747 643 1215 830 154 62 230 87 375 124 387 98 727 132 1061 106z"/>
    <path d="M5565 7624 c-254 -32 -531 -117 -725 -222 -120 -65 -276 -179 -380 -278 -172 -166 -276 -304 -376 -501 -72 -141 -156 -405 -139 -433 3 -5 31 -2 63 5 60 14 191 43 352 77 108 23 135 29 240 53 l76 17 29 65 c147 331 463 540 905 599 134 18 237 18 375 -1 415 -55 744 -287 924 -651 145 -295 146 -646 1 -929 -77 -149 -184 -258 -318 -325 -110 -54 -100 -52 -837 -214 -137 -30 -324 -71 -415 -91 -91 -20 -240 -52 -331 -72 l-167 -36 -78 39 c-78 38 -81 39 -189 39 -102 0 -114 -2 -169 -30 -83 -42 -150 -110 -189 -192 -30 -64 -32 -74 -32 -183 0 -106 2 -119 28 -168 99 -188 291 -269 502 -212 72 20 290 74 360 90 59 13 129 29 178 40 23 5 177 39 342 75 413 91 446 98 650 145 287 66 305 71 402 106 284 103 520 288 696 548 73 107 170 318 207 451 5 17 16 50 26 75 24 63 28 121 28 405 0 275 -4 305 -69 500 -92 275 -221 481 -435 695 -128 128 -226 202 -395 299 -315 180 -761 265 -1140 215z"/>
    <path d="M5590 6203 c-14 -2 -72 -16 -130 -30 -58 -13 -260 -59 -450 -100 -190 -41 -381 -83 -425 -93 -949 -211 -957 -213 -1179 -344 -369 -218 -642 -617 -732 -1071 -28 -141 -26 -454 4 -600 85 -409 312 -787 627 -1042 205 -165 540 -319 805 -368 97 -18 284 -35 385 -35 109 0 349 27 455 51 282 64 517 173 736 344 101 80 298 285 358 374 25 37 52 74 61 81 8 7 15 19 15 27 0 8 11 29 24 46 46 61 155 295 156 334 0 7 11 36 24 65 13 29 27 72 31 95 9 57 -9 66 -95 47 -36 -7 -184 -38 -330 -69 -146 -31 -272 -58 -280 -60 -8 -3 -26 -32 -39 -64 -64 -162 -238 -359 -404 -460 -208 -125 -456 -191 -723 -191 -256 0 -474 59 -687 187 -93 56 -245 196 -317 291 -99 132 -181 321 -210 487 -18 103 -8 329 18 428 44 161 135 318 249 431 130 128 246 180 543 245 30 7 73 16 95 21 417 98 489 114 600 136 44 9 96 20 115 24 382 83 511 110 529 110 12 0 39 -11 59 -25 108 -72 269 -86 382 -33 170 78 274 285 229 453 -33 122 -117 227 -224 279 -51 25 -74 30 -155 32 -52 1 -106 0 -120 -3z"/>
  </g>
</svg>
